<svg width="32" height="32" viewBox="0 0 32 32" fill="none" xmlns="http://www.w3.org/2000/svg">
<g clip-path="url(#clip0_159_7398)">
<path d="M30.6061 14.2972H23.9291L17.8237 4.6196C17.5588 4.20653 17.1128 4 16.6667 4C16.2206 4 15.7746 4.20653 15.5097 4.63435L9.40428 14.2972H2.72731C1.96065 14.2972 1.33337 14.961 1.33337 15.7724C1.33337 15.9052 1.34731 16.0379 1.38913 16.1707L4.92974 29.8462C5.25034 31.0854 6.32368 32 7.6061 32H25.7273C27.0097 32 28.0831 31.0854 28.4176 29.8462L31.9582 16.1707L32 15.7724C32 14.961 31.3728 14.2972 30.6061 14.2972ZM16.6667 8.10116L20.5697 14.2972H12.7637L16.6667 8.10116ZM25.7273 29.0495L7.62004 29.0643L4.55337 17.2476H28.794L25.7273 29.0495ZM16.6667 20.1981C15.1334 20.1981 13.8788 21.5258 13.8788 23.1486C13.8788 24.7713 15.1334 26.0991 16.6667 26.0991C18.2 26.0991 19.4546 24.7713 19.4546 23.1486C19.4546 21.5258 18.2 20.1981 16.6667 20.1981Z" fill="white"/>
</g>
<defs>
<clipPath id="clip0_159_7398">
<rect width="32" height="32" fill="white"/>
</clipPath>
</defs>
</svg>
